<svg width="24" height="24" viewBox="0 0 24 24" fill="none" xmlns="http://www.w3.org/2000/svg">
<path fill-rule="evenodd" clip-rule="evenodd" d="M4.22206 5.36405C5.23344 4.35244 6.57297 3.73545 7.99913 3.62434C9.42528 3.51322 10.8442 3.91529 12.0001 4.75805C13.2213 3.87448 14.7303 3.48277 16.2271 3.66078C17.7239 3.8388 19.0989 4.5735 20.0789 5.71886C21.0588 6.86422 21.5719 8.33637 21.5162 9.8427C21.4604 11.349 20.84 12.7792 19.7781 13.8491L14.1211 19.5061C13.5585 20.0685 12.7956 20.3844 12.0001 20.3844C11.2046 20.3844 10.4416 20.0685 9.87906 19.5061L4.22206 13.8501C3.09693 12.7248 2.46484 11.1988 2.46484 9.60755C2.46484 8.01632 3.09693 6.48926 4.22206 5.36405Z" fill="white"/>
</svg>
