<svg width="24" height="24" viewBox="0 0 24 24" fill="none" xmlns="http://www.w3.org/2000/svg">
<path d="M10.44 3C9.24277 3.00001 8.06325 3.28892 7.00157 3.84221C5.9399 4.3955 5.02742 5.19682 4.34163 6.17814C3.65584 7.15945 3.21698 8.29176 3.06234 9.47893C2.90769 10.6661 3.04181 11.8731 3.45332 12.9973C3.86482 14.1216 4.54156 15.1299 5.42606 15.9367C6.31056 16.7435 7.37669 17.325 8.53394 17.6317C9.69118 17.9384 10.9054 17.9613 12.0733 17.6985C13.2413 17.4357 14.3287 16.8949 15.243 16.122C15.221 16.393 15.313 16.672 15.521 16.879L19.361 20.719C19.541 20.8991 19.7853 21.0003 20.04 21.0003C20.2946 21.0003 20.5389 20.8991 20.719 20.719C20.899 20.5389 21.0002 20.2947 21.0002 20.04C21.0002 19.7853 20.899 19.5411 20.719 19.361L16.879 15.521C16.7805 15.4225 16.6618 15.3467 16.5311 15.2987C16.4004 15.2507 16.2608 15.2317 16.122 15.243C17.0377 14.1597 17.6247 12.8371 17.8137 11.4312C18.0027 10.0253 17.7858 8.59467 17.1886 7.30795C16.5914 6.02123 15.6389 4.93205 14.4432 4.16879C13.2475 3.40552 11.8585 2.99999 10.44 3ZM4.43997 10.44C4.43997 9.65207 4.59516 8.87185 4.89669 8.1439C5.19822 7.41595 5.64017 6.75451 6.19733 6.19736C6.75448 5.64021 7.41591 5.19825 8.14387 4.89672C8.87182 4.59519 9.65203 4.44 10.44 4.44C11.2279 4.44 12.0081 4.59519 12.7361 4.89672C13.464 5.19825 14.1255 5.64021 14.6826 6.19736C15.2398 6.75451 15.6817 7.41595 15.9832 8.1439C16.2848 8.87185 16.44 9.65207 16.44 10.44C16.44 12.0313 15.8078 13.5574 14.6826 14.6826C13.5574 15.8079 12.0313 16.44 10.44 16.44C8.84867 16.44 7.32254 15.8079 6.19733 14.6826C5.07211 13.5574 4.43997 12.0313 4.43997 10.44Z" fill="white"/>
</svg>
