<svg width="24" height="24" viewBox="0 0 24 24" fill="none" xmlns="http://www.w3.org/2000/svg">
<path d="M20.8401 2.17999L16.9101 2.95999L19.6501 6.49999L21.6201 6.09999L20.8401 2.17999ZM13.9701 3.53999L12.0001 3.92999L14.7501 7.45999L16.7101 7.06999L13.9701 3.53999ZM9.07008 4.49999L7.10008 4.90999L9.85008 8.43999L11.8101 8.04999L9.07008 4.49999ZM4.16007 5.49999L3.18008 5.68999C2.92247 5.74079 2.67743 5.84194 2.459 5.98764C2.24057 6.13334 2.05305 6.32072 1.90719 6.53904C1.76133 6.75737 1.66001 7.00234 1.60902 7.2599C1.55803 7.51747 1.55839 7.78257 1.61008 8.03999L2.00008 9.99999L6.90008 9.02999L4.16007 5.49999ZM20.0001 12V20H4.00008V12H20.0001ZM22.0001 9.99999H2.00008V20C2.00008 20.5304 2.21079 21.0391 2.58586 21.4142C2.96093 21.7893 3.46964 22 4.00008 22H20.0001C21.1101 22 22.0001 21.11 22.0001 20V9.99999Z" fill="white"/>
</svg>
